# xmcd
#
# Track frame offsets:
#	150
#	15853
#	31475
#	47758
#	63075
#	78190
#	93903
#	108408
#	123670
#	137918
#	151608
#	165358
#	180458
#	195235
#	210295
#	224608
#	239693
#	254685
#	269215
#	284013
#	298255
#	312965
#
# Disc length: 4383 seconds
#
# Revision: 0
# Processed by: cddbd v1.5.2PL0 Copyright (c) Steve Scherf et al.
# Submitted via: EasyCDDAExtractor 16.0.6.1
#
DISCID=3e111d16
DTITLE=Καζαντζίδης Στέλιος - Στέλιος Καζαντζίδης 1953-1960  
DYEAR=1981
DGENRE=Λαϊκή
TTITLE0=Καζαντζίδης Στέλιος - Μιά Κυριακή στη φυλακή [Χ. Κολοκοτρώνη-Σ. Παντελ
TTITLE0=ίδη]
TTITLE1=Καζαντζίδης Στέλιος - Ένας μάγκας στο Βοτανικό [Χ.Βασιλειάδη-Σ.Περπινι
TTITLE1=άδη-Σ.Περιστέρη-Σ.Χρυσίνη]
TTITLE2=Καζαντζίδης Στέλιος-Στάμου Ρένα - Είναι όλα μαύρα [ΓΜητσάκη]
TTITLE3=Καζαντζίδης Στέλιος - Τέτοια κούκλα και τσαχπίνα [Ν. κ Χ. Κολοκοτρώνη]
TTITLE4=Καζαντζίδης Στέλιος - Η κοινωνία [Χ. Κολοκοτρώνη]
TTITLE5=Καζαντζίδης Στέλιος - Θέλω να πεθάνω [Μ. Μπακάλη-Κ. Βίρβου-Σ. Καμπέρη]
TTITLE6=Καζαντζίδης Στέλιος-Χιώτης Μανώλης - Θεσσαλονίκη μου [Μ. Χιώτη-Χ. Κολο
TTITLE6=κοτρώνη]
TTITLE7=Καζαντζίδης Στέλιος - Το πουκάμισο [Β. Τσιτσάνη]
TTITLE8=Καζαντζίδης Στέλιος-Μαρινέλλα - Η πρώτη αγάπη σου είμαι εγώ [Γ. Μητσάκ
TTITLE8=η]
TTITLE9=Καζαντζίδης Στέλιος - Ίσως αύριο [Β. Τσιτσάνη]
TTITLE10=Καζαντζίδης Στέλιος - Απ' τα ψηλά στα χαμηλά [Α. Καλδάρα-Ε. Παπαγιανν
TTITLE10=οπούλου]
TTITLE11=Καζαντζίδης Στέλιος-Μαρινέλλα - Ζιγκουάλα [Σ. Καζαντζίδη-Ν. Μουρκάκου
TTITLE11=]
TTITLE12=Καζαντζίδης Στέλιος - Απόκληρος της κοινωνίας [Σ. Καζαντζίδη-Κ. Βίρβο
TTITLE12=υ]
TTITLE13=Καζαντζίδης Στέλιος-Μαρινέλλα - Βαρέθηκα τέτοια ζωή [Σ. Καζαντζίδη]
TTITLE14=Καζαντζίδης Στέλιος - Μαντουμπάλα [Σ. Καζαντζίδη]
TTITLE15=Καζαντζίδης Στέλιος-Μαρινέλλα - Τώρα που φεύγω απ' τη ζωή [Σ. Καζαντζ
TTITLE15=ίδη]
TTITLE16=Καζαντζίδης Στέλιος - Κελλί μου κατασκότεινο [Σ. Καζαντζίδη]
TTITLE17=Καζαντζίδης Στέλιος - Είσαι η ζωή μου [Σ. Καζαντζίδη]
TTITLE18=Καζαντζίδης Στέλιος - Αυτή η νύχτα μένει [Σ. Καζαντζίδη]
TTITLE19=Καζαντζίδης Στέλιος - Σήκω χόρεψε κουκλί μου [Σ. Καζαντζίδη]
TTITLE20=Καζαντζίδης Στέλιος - Εγώ με την αξία μου [Χ. Κολοκοτρώνη]
TTITLE21=Καζαντζίδης Στέλιος - Αράπικα κορμιά [Σ. Καζαντζίδη]
EXTD=
EXTT0=
EXTT1=
EXTT2=
EXTT3=
EXTT4=
EXTT5=
EXTT6=
EXTT7=
EXTT8=
EXTT9=
EXTT10=
EXTT11=
EXTT12=
EXTT13=
EXTT14=
EXTT15=
EXTT16=
EXTT17=
EXTT18=
EXTT19=
EXTT20=
EXTT21=
PLAYORDER=
